Sin City (2005)

Directors: Frank Miller and Robert Rodriguez

Sin City, also known as Frank Miller's Sin City, is a 2005 crime thriller film written, produced and directed by Frank Miller and Robert Rodriguez. It is a neo-noir based on Miller's graphic novel series of the same name.

The film is primarily based on three of Miller's works: The Hard Goodbye, about a man who embarks on a brutal rampage in search of his one-time sweetheart's killer; The Big Fat Kill, which focuses on a street war between a group of prostitutes and a group of mercenaries; and That Yellow Bastard, which follows an aging police officer who protects a young woman from a grotesquely disfigured serial killer. The film stars Bruce Willis, Mickey Rourke, Clive Owen, Jessica Alba, Benicio del Toro, Brittany Murphy, Elijah Wood, Rosario Dawson, Jaime King, and Nick Stahl, among others.

Sin City opened to wide critical and commercial success, gathering particular recognition for the film's unique color processing, which rendered most of the film in black and white but retained or added coloring for select objects. The film was screened at the 2005 Cannes Film Festival in-competition and won the Technical Grand Prize for the film's "visual shaping".

Roger Ebert awarded the film four out of four stars, describing it as "a visualization of the pulp noir imagination, uncompromising and extreme. Yes, and brilliant." Online critical reaction was particularly strong: James Berardinelli placed the film on his list of the ten best films of 2005. Several critics including Ebert compared the film favorably to other comic book adaptations, particularly Batman and Hulk. Critic Chauncey Mabe of the South Florida Sun-Sentinel wrote, "Really, there will be no reason for anyone to make a comic-book film ever again. Miller and Rodriguez have pushed the form as far as it can possibly go."

Media Info:
General
Complete name                    : J:\Seeding\Sin City (2005)[DVDRip][big_dad_e™]\Sin City (2005)[DVDRip][big_dad_e™].avi
Format                           : AVI
Format/Info                      : Audio Video Interleave
Format profile                   : OpenDML
File size                        : 1.46 GiB
Duration                         : 2h 4mn
Overall bit rate                 : 1 687 Kbps
Movie name                       : SIN_CITY.Title8.DVDRip
Writing application              : Lavf52.78.4
Original source form/Name        : SIN_CITY

Video
ID                               : 0
Format                           : MPEG-4 Visual
Format profile                   : Advanced Simple@L5
Format settings, BVOP            : 2
Format settings, QPel            : No
Format settings, GMC             : No warppoints
Format settings, Matrix          : Default (H.263)
Muxing mode                      : Packed bitstream
Codec ID                         : XVID
Codec ID/Hint                    : XviD
Duration                         : 2h 4mn
Bit rate                         : 1 353 Kbps
Width                            : 720 pixels
Height                           : 392 pixels
Display aspect ratio             : 16:9
Frame rate                       : 23.976 fps
Color space                      : YUV
Chroma subsampling               : 4:2:0
Bit depth                        : 8 bits
Scan type                        : Progressive
Compression mode                 : Lossy
Bits/(Pixel*Frame)               : 0.200
Stream size                      : 1.17 GiB (80%)
Writing library                  : XviD 1.2.1 (UTC 2008-12-04)

Audio
ID                               : 1
Format                           : MPEG Audio
Format version                   : Version 1
Format profile                   : Layer 3
Mode                             : Joint stereo
Codec ID                         : 55
Codec ID/Hint                    : MP3
Duration                         : 2h 3mn
Bit rate mode                    : Constant
Bit rate                         : 320 Kbps
Channel(s)                       : 2 channels
Sampling rate                    : 48.0 KHz
Compression mode                 : Lossy
Stream size                      : 97.9 MiB (7%)
Alignment                        : Aligned on interleaves
Interleave, duration             : 70 ms (1.67 video frames)
Interleave, preload duration     : 24 ms
Writing library                  : LAME3.98.4

File Scan:
Malwarebytes' Anti-Malware 1.50.1.1100
www.malwarebytes.org

Database version: 6241
4/1/2011 7:28:57 PM
mbam-log-2011-04-01 (19-28-57).txt

Scan type: Quick scan
Objects scanned: 5
Time elapsed: 11 second(s)

Memory Processes Infected: 0
Memory Modules Infected: 0
Registry Keys Infected: 0
Registry Values Infected: 0
Registry Data Items Infected: 0
Folders Infected: 0
Files Infected: 0

Memory Processes Infected:
(No malicious items detected)

Memory Modules Infected:
(No malicious items detected)

Registry Keys Infected:
(No malicious items detected)

Registry Values Infected:
(No malicious items detected)

Registry Data Items Infected:
(No malicious items detected)

Folders Infected:
(No malicious items detected)

Files Infected:
(No malicious items detected)

When using TPB please read these important notes:
  
01- Anti-malware apps may warn about keygens, patches, cracks, etc., because of 
    their capabilities, (generating codes, etc.). Sometimes they're added to 
    the virus/spyware database and will be detected as malware. If you don't trust
    the keygens, patches, cracks, etc., don't use them. 
    
02- Before running .exe-files, keygens, patches, cracks, etc., always check first 
    if they can be unpacked. Often some third party added a virus to the 
    original file, repacked it and uploaded it again.

03- Letting anti-malware apps send scan results to their companies can cause
    keygens, patches, cracks, etc., to be added to their virus-database.

04- Firewalls which are set to automatically determine connections will allow 
    apps & malware!. Avoid this by manually configuring your firewall.

05- Usually (new) torrents with many downloads and seeders in a brief period is
    suspicious! Torrents with the Skull & Crossbones icon are trusted.

06- Some people use multiple accounts and post fake comments 
    and/or files trying to spread confusion. They seldom seriously
    comment or have any torrents, or a just a few to look passable.

07- Clicking on unknown links can cause malware to be installed on your machine.
  
08- In general often there are more fake and negative comments than reliable and
    positive comments.

09- In some countries uploading/downloading copyright protected material is 
    forbidden, but showing some appreciation to reliable up-loaders is not.

10- Posting fake and negative comments or fake/infected uploads on TPB can result
    in getting banned from TPB!

Requests?  Find me on SuprBay. http://forum.suprbay.org
 

For reporting bad or suspicious torrents:  
http://forum.suprbay.org/forumdisplay.php?fid=29

For more of my torrents: 
https://thepiratebay.org/user/big_dad_e/  (Secured)

All torrents scanned with:
Norton Anti-virus
Malwarebytes' Anti-malware
 
http://www.pirate-party.us/

ALWAYS SEED & THANKS SEEDERS!
